<mxfile host="app.diagrams.net" modified="2024-02-05T04:09:19.728Z" agent="Mozilla/5.0 (Windows NT 10.0; Win64; x64) AppleWebKit/537.36 (KHTML, like Gecko) Chrome/121.0.0.0 Safari/537.36" version="22.1.21" etag="kRO9zIBye93ZCO2kQGP0" type="github">
  <diagram name="Page-1" id="zKWy_iDyfIrhhw43H3Dh">
    <mxGraphModel>
      <root>
        <mxCell id="0" />
        <mxCell id="1" parent="0" />
      </root>
    </mxGraphModel>
  </diagram>
</mxfile>
